<svg width="19" height="34" viewBox="0 0 19 34" fill="none" xmlns="http://www.w3.org/2000/svg">
<path d="M8.468 0.803998H10.448V3.432C15.344 3.828 18.404 6.852 18.368 11.604H14.984C14.876 7.896 12.788 6.456 10.448 6.168V15.096L10.988 15.24C14.948 16.32 18.98 17.868 18.98 22.836C18.98 27.696 15.092 30.144 10.448 30.432V33.492H8.468V30.432C3.5 30.036 0.08 26.472 0.188 21.72H3.572C3.68 25.536 5.984 27.408 8.468 27.696V17.94L7.676 17.724C3.788 16.68 0.872 14.304 0.872 10.272C0.872 6.132 4.58 3.828 8.468 3.432V0.803998ZM15.596 23.34C15.596 20.316 13.616 19.344 10.448 18.48V27.732C13.184 27.552 15.596 26.112 15.596 23.34ZM4.256 10.236C4.256 12.396 5.588 13.728 8.432 14.556L8.468 14.592V6.132C6.344 6.312 4.256 7.536 4.256 10.236Z" fill="black"/>
</svg>
