<svg width="14" height="14" viewBox="0 0 14 14" fill="none" xmlns="http://www.w3.org/2000/svg">
<path d="M13.5 12.375L9.6225 8.49687C10.2474 7.63817 10.5835 6.60325 10.5825 5.54125C10.5825 2.76156 8.32094 0.5 5.54125 0.5C2.76156 0.5 0.5 2.76156 0.5 5.54125C0.5 8.32094 2.76156 10.5825 5.54125 10.5825C6.60325 10.5835 7.63817 10.2474 8.49687 9.6225L12.375 13.5L13.5 12.375ZM5.54125 8.99031C4.859 8.99037 4.19206 8.78812 3.62476 8.40912C3.05747 8.03012 2.6153 7.4914 2.35419 6.8611C2.09308 6.2308 2.02474 5.53722 2.15783 4.86807C2.29091 4.19893 2.61944 3.58428 3.10186 3.10186C3.58428 2.61944 4.19893 2.29091 4.86807 2.15783C5.53722 2.02474 6.2308 2.09308 6.8611 2.35419C7.4914 2.6153 8.03012 3.05747 8.40912 3.62476C8.78812 4.19206 8.99037 4.859 8.99031 5.54125C8.98924 6.45567 8.62551 7.33233 7.97892 7.97892C7.33233 8.62551 6.45567 8.98924 5.54125 8.99031Z" fill="#A1A1A1"/>
</svg>
