<svg width="16" height="16" viewBox="0 0 16 16" fill="none" xmlns="http://www.w3.org/2000/svg">
<g clip-path="url(#clip0_80_246)">
<path d="M8 2C8.13261 2 8.25979 2.05268 8.35355 2.14645C8.44732 2.24021 8.5 2.36739 8.5 2.5V4C8.5 4.13261 8.44732 4.25979 8.35355 4.35355C8.25979 4.44732 8.13261 4.5 8 4.5C7.86739 4.5 7.74021 4.44732 7.64645 4.35355C7.55268 4.25979 7.5 4.13261 7.5 4V2.5C7.5 2.36739 7.55268 2.24021 7.64645 2.14645C7.74021 2.05268 7.86739 2 8 2ZM3.732 3.732C3.82576 3.63826 3.95292 3.58561 4.0855 3.58561C4.21808 3.58561 4.34524 3.63826 4.439 3.732L5.354 4.646C5.44789 4.73989 5.50063 4.86722 5.50063 5C5.50063 5.13278 5.44789 5.26011 5.354 5.354C5.26011 5.44789 5.13278 5.50063 5 5.50063C4.86722 5.50063 4.73989 5.44789 4.646 5.354L3.732 4.439C3.63826 4.34524 3.58561 4.21808 3.58561 4.0855C3.58561 3.95292 3.63826 3.82576 3.732 3.732ZM2 8C2 7.86739 2.05268 7.74021 2.14645 7.64645C2.24021 7.55268 2.36739 7.5 2.5 7.5H4.086C4.21861 7.5 4.34579 7.55268 4.43955 7.64645C4.53332 7.74021 4.586 7.86739 4.586 8C4.586 8.13261 4.53332 8.25979 4.43955 8.35355C4.34579 8.44732 4.21861 8.5 4.086 8.5H2.5C2.36739 8.5 2.24021 8.44732 2.14645 8.35355C2.05268 8.25979 2 8.13261 2 8ZM11.5 8C11.5 7.86739 11.5527 7.74021 11.6464 7.64645C11.7402 7.55268 11.8674 7.5 12 7.5H13.5C13.6326 7.5 13.7598 7.55268 13.8536 7.64645C13.9473 7.74021 14 7.86739 14 8C14 8.13261 13.9473 8.25979 13.8536 8.35355C13.7598 8.44732 13.6326 8.5 13.5 8.5H12C11.8674 8.5 11.7402 8.44732 11.6464 8.35355C11.5527 8.25979 11.5 8.13261 11.5 8ZM12.254 3.754C12.1846 3.6853 12.092 3.64512 11.9944 3.64142C11.8968 3.63772 11.8014 3.67075 11.727 3.734L7.547 7.31C7.45072 7.39243 7.37272 7.49406 7.318 7.60838C7.26328 7.72271 7.23304 7.8472 7.22923 7.97389C7.22542 8.10058 7.24811 8.22667 7.29585 8.34407C7.3436 8.46148 7.41535 8.56762 7.50649 8.65569C7.59764 8.74376 7.70618 8.81182 7.82516 8.8555C7.94414 8.89919 8.07093 8.91754 8.19741 8.90938C8.3239 8.90122 8.44728 8.86673 8.55966 8.80811C8.67203 8.7495 8.77093 8.66805 8.85 8.569L12.284 4.272C12.3435 4.19713 12.3735 4.10299 12.3681 4.00748C12.3628 3.91197 12.3225 3.82176 12.255 3.754H12.254Z" fill="#474747"/>
<path fill-rule="evenodd" clip-rule="evenodd" d="M6.6639 15.8889C5.62784 15.7135 4.63647 15.3357 3.74642 14.7771C2.85636 14.2185 2.08503 13.4901 1.47649 12.6334C0.247466 10.9033 -0.243929 8.75584 0.1104 6.66341C0.464729 4.57099 1.63576 2.70502 3.36588 1.476C5.09599 0.246978 7.24347 -0.244418 9.3359 0.109911C11.4285 0.464241 13.2946 1.63532 14.5237 3.36553C15.7528 5.09574 16.2442 7.24335 15.8899 9.33591C15.5356 11.4285 14.3645 13.2946 12.6343 14.5237C10.9041 15.7528 8.75646 16.2442 6.6639 15.8899V15.8889ZM1.9989 11.6059C3.82268 10.5509 5.89297 9.99686 7.9999 9.99991C10.1859 9.99991 12.2359 10.5849 14.0009 11.6059C14.6388 10.5438 14.9833 9.33132 14.9993 8.09244C15.0153 6.85357 14.7022 5.63264 14.092 4.55436C13.4818 3.47608 12.5963 2.57908 11.526 1.95497C10.4557 1.33087 9.23888 1.00202 7.9999 1.00202C6.76092 1.00202 5.54414 1.33087 4.47383 1.95497C3.40352 2.57908 2.51803 3.47608 1.90781 4.55436C1.29758 5.63264 0.98448 6.85357 1.00048 8.09244C1.01649 9.33132 1.36102 10.5438 1.9989 11.6059Z" fill="#474747"/>
</g>
<defs>
<clipPath id="clip0_80_246">
<rect width="16" height="16" fill="white"/>
</clipPath>
</defs>
</svg>
