<svg width="23" height="24" viewBox="0 0 23 24" fill="none" xmlns="http://www.w3.org/2000/svg">
<path d="M14.0504 5.27832C15.0272 5.46889 15.9248 5.94658 16.6285 6.65026C17.3322 7.35393 17.8099 8.25159 18.0004 9.22832M14.0504 1.27832C16.0797 1.50376 17.972 2.4125 19.4167 3.85533C20.8613 5.29816 21.7724 7.18933 22.0004 9.21832M21.0004 17.1983V20.1983C21.0016 20.4768 20.9445 20.7525 20.8329 21.0077C20.7214 21.2628 20.5577 21.4919 20.3525 21.6802C20.1473 21.8685 19.905 22.0118 19.6412 22.101C19.3773 22.1902 19.0978 22.2234 18.8204 22.1983C15.7433 21.864 12.7874 20.8125 10.1904 19.1283C7.77425 17.593 5.72576 15.5445 4.19042 13.1283C2.5004 10.5195 1.44866 7.54931 1.12042 4.45832C1.09543 4.18179 1.1283 3.90308 1.21692 3.63994C1.30555 3.37681 1.44799 3.13501 1.63519 2.92994C1.82238 2.72487 2.05023 2.56103 2.30421 2.44884C2.5582 2.33665 2.83276 2.27858 3.11042 2.27832H6.11042C6.59573 2.27354 7.06621 2.4454 7.43418 2.76185C7.80215 3.07831 8.0425 3.51777 8.11042 3.99832C8.23704 4.95839 8.47187 5.90105 8.81042 6.80832C8.94497 7.16624 8.97408 7.55524 8.89433 7.9292C8.81457 8.30317 8.62928 8.64643 8.36042 8.91832L7.09042 10.1883C8.51398 12.6919 10.5869 14.7648 13.0904 16.1883L14.3604 14.9183C14.6323 14.6495 14.9756 14.4642 15.3495 14.3844C15.7235 14.3047 16.1125 14.3338 16.4704 14.4683C17.3777 14.8069 18.3204 15.0417 19.2804 15.1683C19.7662 15.2369 20.2098 15.4815 20.527 15.8558C20.8441 16.2301 21.0126 16.7079 21.0004 17.1983Z" stroke="#0F172A" stroke-width="2" stroke-linecap="round" stroke-linejoin="round"/>
</svg>
